<svg width="588" height="747" viewBox="0 0 588 747" fill="none" xmlns="http://www.w3.org/2000/svg">
<rect x="38.6712" y="53.3565" width="828.658" height="515.786" fill="#DD5F00"/>
<rect x="453" y="53.3565" width="414.329" height="515.786" fill="#FFBB33"/>
<rect x="55.2444" y="71.1429" width="795.512" height="480.214" fill="#0000B2"/>
<path d="M386.708 569.143H320.415L154.684 747H220.976L386.708 569.143Z" fill="#DD5F00"/>
<path d="M519.293 569.143H585.585L751.317 747H685.024L519.293 569.143Z" fill="#FFBB33"/>
<rect x="414.33" width="77.3415" height="53.3572" fill="#FFBB33"/>
<rect x="453" width="38.6707" height="53.3572" fill="#FEE94E"/>
<rect x="303.841" y="622.5" width="298.317" height="29.6429" fill="#DD5F00"/>
<rect x="453" y="622.5" width="149.159" height="29.6429" fill="#FFBB33"/>
<rect y="539.5" width="906" height="29.6429" fill="#FFBB33"/>
<rect x="453" y="539.5" width="453" height="29.6429" fill="#FEE94E"/>
<path d="M149.159 515.785V539.5H270.695V515.785L254.122 498H165.732L149.159 515.785Z" fill="#FEEF7E"/>
<rect x="149.159" y="521.714" width="121.537" height="17.7857" fill="#DD5F00"/>
</svg>
